<?xml version="1.0" encoding="utf-8"?><!-- Uploaded to: SVG Repo, www.svgrepo.com, Generator: SVG Repo Mixer Tools -->
<svg fill="#000000" width="16px" height="16px" viewBox="0 0 24 24" xmlns="http://www.w3.org/2000/svg"><path fill="#5C7080" d="M1,20a1,1,0,0,0,1,1h8a1,1,0,0,0,0-2H3.071A7.011,7.011,0,0,1,10,13a5.044,5.044,0,1,0-3.377-1.337A9.01,9.01,0,0,0,1,20ZM10,5A3,3,0,1,1,7,8,3,3,0,0,1,10,5"/><path fill="#DE4B4B" d="M10,5Zm12.707,9.707L20.414,17l2.293,2.293a1,1,0,1,1-1.414,1.414L19,18.414l-2.293,2.293a1,1,0,0,1-1.414-1.414L17.586,17l-2.293-2.293a1,1,0,0,1,1.414-1.414L19,15.586l2.293-2.293a1,1,0,0,1,1.414,1.414Z"></path></svg>
