<?xml version="1.0" encoding="utf-8"?><!-- Uploaded to: SVG Repo, www.svgrepo.com, Generator: SVG Repo Mixer Tools -->
<svg fill="#000000" width="16px" height="16px" viewBox="0 0 24 24" xmlns="http://www.w3.org/2000/svg"><path fill="#5C7080"  d="M1,20a9.01,9.01,0,0,1,5.623-8.337A4.981,4.981,0,1,1,10,13a7.011,7.011,0,0,0-6.929,6H10a1,1,0,0,1,0,2H2A1,1,0,0,1,1,20ZM7,8a3,3,0,1,0,3-3A3,3,0,0,0,7,8Z"/><path fill="#27A370" d="M16.03,18.616l5.294-4.853a1,1,0,0,1,1.352,1.474l-6,5.5a1,1,0,0,1-1.383-.03l-3-3a1,1,0,0,1,1.414-1.414Z"></path></svg>
